<?xml version="1.0" encoding="utf-8"?>
<!-- Generator: Adobe Illustrator 26.3.1, SVG Export Plug-In . SVG Version: 6.00 Build 0)  -->
<svg version="1.1" id="Layer_1" xmlns="http://www.w3.org/2000/svg" xmlns:xlink="http://www.w3.org/1999/xlink" x="0px" y="0px"
	 viewBox="0 0 200 200" style="enable-background:new 0 0 200 200;" xml:space="preserve">
<style type="text/css">
	.st0{fill:url(#SVGID_1_);stroke:#000000;stroke-width:5;stroke-miterlimit:10;}
</style>
<radialGradient id="SVGID_1_" cx="99.5858" cy="100.079" r="87.9423" gradientUnits="userSpaceOnUse">
	<stop  offset="0" style="stop-color:#000000"/>
	<stop  offset="0.1102" style="stop-color:#343434"/>
	<stop  offset="0.239" style="stop-color:#696969"/>
	<stop  offset="0.3696" style="stop-color:#979797"/>
	<stop  offset="0.4992" style="stop-color:#BCBCBC"/>
	<stop  offset="0.6276" style="stop-color:#DADADA"/>
	<stop  offset="0.7546" style="stop-color:#EEEEEE"/>
	<stop  offset="0.8795" style="stop-color:#FBFBFB"/>
	<stop  offset="1" style="stop-color:#FFFFFF"/>
</radialGradient>
<path class="st0" d="M155.75,151.11c16.41-15.14,26.7-36.82,26.7-60.91c0-45.76-37.1-82.86-82.86-82.86
	c-45.76,0-82.86,37.1-82.86,82.86c0,24.09,10.29,45.77,26.7,60.91c-2.57,2.26-4,4.71-4,7.27c0,2.51,1.36,4.91,3.83,7.13l-2.09,4.96
	c-0.89,2.1,0.1,4.53,2.2,5.41l7.99,3.37c2.1,0.89,4.53-0.1,5.41-2.2l1.64-3.89c1,0.32,2.02,0.62,3.09,0.92l-0.75,6.87
	c-0.25,2.27,1.39,4.31,3.66,4.56l8.62,0.95c2.27,0.25,4.31-1.39,4.56-3.66l0.6-5.46c1.1,0.14,2.22,0.28,3.35,0.4l-0.52,10.31
	c-0.12,2.28,1.64,4.22,3.92,4.34l8.66,0.44c2.28,0.12,4.22-1.64,4.34-3.92l0.52-10.25c0.38,0,0.76,0.01,1.14,0.01
	c0.82,0,1.63-0.01,2.44-0.02l0.52,10.26c0.12,2.28,2.06,4.03,4.34,3.92l8.66-0.44c2.28-0.12,4.03-2.06,3.92-4.34l-0.53-10.45
	c1.13-0.13,2.24-0.27,3.34-0.42l0.62,5.63c0.25,2.27,2.29,3.9,4.56,3.66l8.62-0.95c2.27-0.25,3.9-2.29,3.66-4.56l-0.79-7.23
	c1.02-0.3,2.01-0.6,2.97-0.92l1.8,4.26c0.89,2.1,3.31,3.09,5.41,2.2l7.99-3.37c2.1-0.89,3.09-3.31,2.2-5.41l-2.47-5.85
	c1.88-1.97,2.91-4.06,2.91-6.24C159.75,155.82,158.32,153.37,155.75,151.11z M67.08,138.21c-14.18,0-25.67-11.49-25.67-25.67
	c0-14.18,11.49-25.67,25.67-25.67c14.18,0,25.67,11.49,25.67,25.67C92.75,126.72,81.26,138.21,67.08,138.21z M110.19,148.48
	c-2.65,4.59-18.55,4.59-21.2,0c-2.65-4.59,5.3-18.36,10.6-18.36C104.9,130.13,112.84,143.89,110.19,148.48z M130.4,133.29
	c-11.46,0-20.75-9.29-20.75-20.75s9.29-20.75,20.75-20.75c11.46,0,20.75,9.29,20.75,20.75S141.87,133.29,130.4,133.29z"/>
</svg>
