<?xml version="1.0" encoding="utf-8"?>
<!-- Generator: Adobe Illustrator 26.3.1, SVG Export Plug-In . SVG Version: 6.00 Build 0)  -->
<svg version="1.1" id="Layer_1" xmlns="http://www.w3.org/2000/svg" xmlns:xlink="http://www.w3.org/1999/xlink" x="0px" y="0px"
	 viewBox="0 0 200 200" style="enable-background:new 0 0 200 200;" xml:space="preserve">
<style type="text/css">
	.st0{fill-rule:evenodd;clip-rule:evenodd;fill:url(#SVGID_1_);}
	.st1{fill-rule:evenodd;clip-rule:evenodd;fill:#D3D3D3;}
	.st2{fill-rule:evenodd;clip-rule:evenodd;fill:#F7F7F7;}
	.st3{fill-rule:evenodd;clip-rule:evenodd;fill:#888888;}
	.st4{fill-rule:evenodd;clip-rule:evenodd;fill:#080808;}
	.st5{fill-rule:evenodd;clip-rule:evenodd;fill:url(#SVGID_00000181068304521221917580000016362733900675523204_);}
	.st6{fill-rule:evenodd;clip-rule:evenodd;fill:#EDEDED;}
	.st7{fill-rule:evenodd;clip-rule:evenodd;fill:url(#SVGID_00000138537240740819882870000009431272448863400637_);}
	.st8{fill-rule:evenodd;clip-rule:evenodd;fill:#555555;}
</style>
<g>
	<linearGradient id="SVGID_1_" gradientUnits="userSpaceOnUse" x1="-5.7592" y1="248.1163" x2="214.9569" y2="-91.7568">
		<stop  offset="0" style="stop-color:#D5D4D5"/>
		<stop  offset="1" style="stop-color:#FFFFFF"/>
	</linearGradient>
	<path class="st0" d="M101.95,134.63c53.76,0.58,86.52-11.67,76.7-49.93c-29.08-21.67-56.6-11.97-82.92,21.84
		c3.34-48.16-15.78-70.78-53.9-71.78c-31.45,23.85-7.02,54.53,17.62,80.1C74.31,120.41,87.1,129.08,101.95,134.63z"/>
	<path class="st1" d="M100.84,129.88c24.69-8.44,67.41-18.48,66.84-53.22c15.43,11.42,20.16,21.19,9.71,38.6
		c-25.64,19.24-48.28,20.99-71.7,21.74C104.08,134.62,102.46,132.25,100.84,129.88z"/>
	<path class="st2" d="M71.34,113.01C50.4,88.23,38.99,53.97,57.15,34.68c-8.03,1.32-24.83,8.54-29.87,19.86
		c2.84,21.88,12.46,39.22,24.27,55.09c5.48,3.12,10.95,6.24,16.43,9.37C69.1,117.01,70.22,115.01,71.34,113.01z"/>
	<g>
		<path class="st3" d="M97.08,139.01c14.89,0.59,28.77-0.06,40.83-1.81c21.69-3.15,41.68-12.35,46.61-27.92
			c9.19-29.07-14.08-41.86-40.94-39.36c-39.16,3.63-47.42,29.53-59.56,63.63c2.85,0.88,5.69,1.75,8.54,2.63
			c7.61-30.58,12.07-52,48.91-59.18c18.89-3.68,40.43,4.96,33.94,28.07c-3.64,12.97-22.58,19.4-39.7,23.69
			c-13.86,3.47-28.38,3.83-43.03,3.49C94.18,134.39,95.58,136.86,97.08,139.01z"/>
		<path class="st3" d="M70.69,129.93c-11.42-9.61-21.27-19.44-29.02-28.87C27.72,84.09,19.07,63.8,25.85,48.94
			c12.66-27.73,38.45-21.5,56.67-1.54c26.57,29.1,15.35,53.85,1.51,87.29c-2.7-1.27-5.39-2.54-8.08-3.82
			c14.84-27.78,25.88-46.65,3.4-76.82c-11.53-15.47-33.27-23.59-43.92-2.1c-5.98,12.07,3.73,29.6,13.54,44.32
			c7.94,11.91,18.45,21.98,29.53,31.61C75.93,128.47,73.24,129.35,70.69,129.93z"/>
		<path class="st4" d="M85.42,113.07c-16.96-5.22-34.79,3.91-39.82,20.39c-5.03,16.48,4.64,34.06,21.6,39.28
			c16.96,5.22,34.79-3.91,39.82-20.39C112.06,135.87,102.38,118.28,85.42,113.07z"/>
	</g>
	<path class="st4" d="M58.78,108.52c-10.19-4.74-22.28-0.29-27,9.94c-4.72,10.23-0.29,22.36,9.9,27.1
		c10.19,4.74,22.28,0.29,27.01-9.94C73.41,125.4,68.98,113.26,58.78,108.52z"/>
	<path class="st4" d="M90.68,123.35c-10.19-4.74-22.28-0.29-27.01,9.94c-4.72,10.23-0.29,22.36,9.91,27.1
		c10.19,4.74,22.28,0.29,27-9.94C105.31,140.23,100.87,128.09,90.68,123.35z"/>
	
		<radialGradient id="SVGID_00000093882348885387263530000006614636774224670094_" cx="76.913" cy="125.3947" r="26.0433" gradientTransform="matrix(1.0087 0 0 1.0123 1.251 1.8975)" gradientUnits="userSpaceOnUse">
		<stop  offset="0" style="stop-color:#F5292C"/>
		<stop  offset="1" style="stop-color:#9B2225"/>
	</radialGradient>
	<path style="fill-rule:evenodd;clip-rule:evenodd;fill:url(#SVGID_00000093882348885387263530000006614636774224670094_);" d="
		M86.98,126.26c-7.56-3.52-16.54-0.21-20.04,7.38c-3.5,7.59-0.21,16.6,7.35,20.11c7.56,3.52,16.53,0.21,20.04-7.38
		C97.84,138.78,94.55,129.77,86.98,126.26z"/>
	<path class="st6" d="M96.14,131.96c-2.99-1.39-6.54-0.08-7.93,2.92c-1.39,3-0.08,6.57,2.91,7.96c2.99,1.39,6.54,0.08,7.93-2.92
		C100.43,136.92,99.13,133.35,96.14,131.96z"/>
	
		<radialGradient id="SVGID_00000141431343214309718640000009367892072569879200_" cx="45.9702" cy="110.2353" r="27.2365" gradientTransform="matrix(1.0087 0 0 1.0123 1.251 1.8975)" gradientUnits="userSpaceOnUse">
		<stop  offset="0" style="stop-color:#F5292C"/>
		<stop  offset="1" style="stop-color:#9B2225"/>
	</radialGradient>
	<path style="fill-rule:evenodd;clip-rule:evenodd;fill:url(#SVGID_00000141431343214309718640000009367892072569879200_);" d="
		M56.68,111.82c-7.56-3.52-16.53-0.21-20.04,7.38c-3.5,7.59-0.21,16.6,7.35,20.11c7.56,3.52,16.54,0.21,20.04-7.38
		C67.53,124.34,64.24,115.34,56.68,111.82z"/>
	<path class="st6" d="M64.24,117.13c-2.99-1.39-6.54-0.08-7.93,2.92c-1.39,3-0.08,6.57,2.91,7.96c2.99,1.39,6.54,0.08,7.93-2.92
		C68.54,122.09,67.23,118.52,64.24,117.13z"/>
	<path class="st8" d="M143.42,110.7C127.92,80.45,98.1,63.28,52.2,60.77C86.42,69.76,117.49,85.07,143.42,110.7z"/>
	<path class="st8" d="M123.72,113.82c-10-19.54-29.26-30.63-58.91-32.25C86.91,87.38,106.98,97.27,123.72,113.82z"/>
	<path class="st8" d="M152.71,138.14c31.2,4.03,39.94-10.6,44.28-28.86C185.43,124.48,177.89,134.3,152.71,138.14z"/>
	<path class="st8" d="M21.4,85.93c-17.91-20.69-20.44-40.68,0-53.51C9.89,49.96,10.41,67.81,21.4,85.93z"/>
</g>
</svg>
