<?xml version="1.0" encoding="utf-8"?>
<!-- Generator: Adobe Illustrator 26.3.1, SVG Export Plug-In . SVG Version: 6.00 Build 0)  -->
<svg version="1.1" id="Layer_1" xmlns="http://www.w3.org/2000/svg" xmlns:xlink="http://www.w3.org/1999/xlink" x="0px" y="0px"
	 viewBox="0 0 200 200" style="enable-background:new 0 0 200 200;" xml:space="preserve">
<g id="_x38_67-swords-selected_x40_2x.png">
	<g>
		<path d="M70.22,81.74l25-25L59.54,19.07c0,0-21.74,0-23.6,0c-1.86,0-3.37,1.51-3.37,3.37v20.23c0,0.93,0.38,1.77,0.99,2.38
			L70.22,81.74z M125,86.51l41.45-41.45c0.61-0.61,0.99-1.45,0.99-2.38V22.45c0-1.86-1.51-3.37-3.37-3.37c-1.86,0-23.6,0-23.6,0
			L100,61.51l-0.01-0.01l-25,25L75,86.51l-25.58,25.58l-11.1-11.1c-0.61-0.61-1.45-0.99-2.38-0.99s-1.77,0.38-2.38,0.99
			l-13.49,13.49c-0.61,0.61-0.99,1.46-0.99,2.38c0,0.93,0.38,1.77,0.99,2.38l6.64,6.64l0.03-0.03l33.72,33.72l-0.03,0.03l6.85,6.85
			c0.61,0.61,1.45,0.99,2.38,0.99s1.77-0.38,2.38-0.99l13.49-13.49c0.61-0.61,0.99-1.45,0.99-2.38c0-0.93-0.38-1.77-0.99-2.38
			l-11.1-11.1L100,111.51l0.01,0.01L125,86.51L125,86.51z M6.58,161.68c-0.61,0.61-0.99,1.45-0.99,2.38c0,0.93,0.38,1.77,0.99,2.38
			l13.49,13.49c0.61,0.61,1.45,0.99,2.38,0.99s1.78-0.38,2.38-0.99l23.22-23.22L29.8,138.46L6.58,161.68z M193.42,161.68
			l-23.22-23.22l-18.26,18.26l23.22,23.22c0.61,0.61,1.45,0.99,2.38,0.99s1.77-0.38,2.38-0.99l13.49-13.49
			c0.61-0.61,0.99-1.45,0.99-2.38C194.41,163.13,194.04,162.29,193.42,161.68z M173.27,125.86l0.03,0.03l6.64-6.64
			c0.61-0.61,0.99-1.45,0.99-2.38c0-0.93-0.38-1.77-0.99-2.38l-13.49-13.49c-0.61-0.61-1.45-0.99-2.38-0.99s-1.78,0.38-2.38,0.99
			l-11.1,11.1l-20.8-20.8l-25,25l20.8,20.8l-11.1,11.1c-0.61,0.61-0.99,1.46-0.99,2.38c0,0.93,0.38,1.77,0.99,2.38l13.49,13.49
			c0.61,0.61,1.45,0.99,2.38,0.99s1.77-0.38,2.38-0.99l6.85-6.85l-0.03-0.03L173.27,125.86z"/>
	</g>
</g>
</svg>
