<?xml version="1.0" encoding="utf-8"?>
<!-- Generator: Adobe Illustrator 26.3.1, SVG Export Plug-In . SVG Version: 6.00 Build 0)  -->
<svg version="1.1" id="Layer_1" xmlns="http://www.w3.org/2000/svg" xmlns:xlink="http://www.w3.org/1999/xlink" x="0px" y="0px"
	 viewBox="0 0 180 180" style="enable-background:new 0 0 180 180;" xml:space="preserve">
<style type="text/css">
	.st0{fill:none;stroke:#000000;stroke-width:5;stroke-miterlimit:10;}
	.st1{fill:url(#SVGID_1_);stroke:#000000;stroke-width:5;stroke-miterlimit:10;}
	.st2{fill:url(#SVGID_00000009578659731897013080000010063939140208829329_);stroke:#231F20;stroke-width:5;stroke-miterlimit:10;}
	.st3{fill:url(#SVGID_00000074425688605273548790000013414298564925805220_);stroke:#231F20;stroke-width:5;stroke-miterlimit:10;}
	.st4{fill:url(#SVGID_00000165952681783992014690000011749986570530813848_);stroke:#231F20;stroke-width:5;stroke-miterlimit:10;}
	.st5{fill:url(#SVGID_00000049919933936144093860000012952304123120069506_);stroke:#231F20;stroke-width:5;stroke-miterlimit:10;}
	.st6{stroke:#231F20;stroke-width:5;stroke-miterlimit:10;}
	.st7{fill:#FFFFFF;stroke:#231F20;stroke-width:5;stroke-miterlimit:10;}
</style>
<g>
	<path class="st0" d="M74.66,10.12c4.64,6.15,10.33,15.74,12.24,28.35c0.39,2.6,0.59,5.08,0.64,7.41"/>
	<path class="st0" d="M95.28,45.88c-2.83-15.48,1.5-29.35,10.95-34.79c2.01-1.16,5.15-2.45,9.66-2.58"/>
	<radialGradient id="SVGID_1_" cx="85.2619" cy="107.49" r="64" gradientUnits="userSpaceOnUse">
		<stop  offset="0" style="stop-color:#FFA580"/>
		<stop  offset="1" style="stop-color:#320000"/>
	</radialGradient>
	<circle class="st1" cx="85.26" cy="107.49" r="64"/>
	
		<radialGradient id="SVGID_00000119818400541791920830000008381723003399793283_" cx="123.3019" cy="76.4546" r="35.4362" gradientUnits="userSpaceOnUse">
		<stop  offset="0.4374" style="stop-color:#FFFFFF"/>
		<stop  offset="1" style="stop-color:#000000"/>
	</radialGradient>
	
		<circle style="fill:url(#SVGID_00000119818400541791920830000008381723003399793283_);stroke:#231F20;stroke-width:5;stroke-miterlimit:10;" cx="123.3" cy="76.45" r="35.44"/>
	
		<radialGradient id="SVGID_00000150782067852529632520000010470336544459303845_" cx="57.5839" cy="72.4546" r="35.4362" gradientUnits="userSpaceOnUse">
		<stop  offset="0.4374" style="stop-color:#FFFFFF"/>
		<stop  offset="1" style="stop-color:#000000"/>
	</radialGradient>
	
		<circle style="fill:url(#SVGID_00000150782067852529632520000010470336544459303845_);stroke:#231F20;stroke-width:5;stroke-miterlimit:10;" cx="57.58" cy="72.45" r="35.44"/>
	
		<radialGradient id="SVGID_00000013894202521156852860000011428028467690437543_" cx="123.3019" cy="67.5971" r="35.4362" gradientUnits="userSpaceOnUse">
		<stop  offset="0.4374" style="stop-color:#FFFFFF"/>
		<stop  offset="1" style="stop-color:#BFBFBF"/>
	</radialGradient>
	
		<circle style="fill:url(#SVGID_00000013894202521156852860000011428028467690437543_);stroke:#231F20;stroke-width:5;stroke-miterlimit:10;" cx="123.3" cy="67.6" r="35.44"/>
	
		<radialGradient id="SVGID_00000077299291389550831130000015297877360394459809_" cx="57.5839" cy="63.5971" r="35.4362" gradientUnits="userSpaceOnUse">
		<stop  offset="0.4374" style="stop-color:#FFFFFF"/>
		<stop  offset="1" style="stop-color:#BFBFBF"/>
	</radialGradient>
	
		<circle style="fill:url(#SVGID_00000077299291389550831130000015297877360394459809_);stroke:#231F20;stroke-width:5;stroke-miterlimit:10;" cx="57.58" cy="63.6" r="35.44"/>
	<circle class="st6" cx="70.67" cy="65.28" r="11.11"/>
	<circle class="st6" cx="112.03" cy="69.85" r="11.28"/>
	<polygon class="st7" points="64.97,132.97 81.89,132.97 73.43,142.68 64.97,152.39 56.51,142.68 48.05,132.97 	"/>
	<polygon class="st7" points="107.22,132.97 124.14,132.97 115.68,142.68 107.22,152.39 98.76,142.68 90.3,132.97 	"/>
	<polygon class="st7" points="86.09,132.97 103.01,132.97 94.55,142.68 86.09,152.39 77.63,142.68 69.17,132.97 	"/>
</g>
</svg>
