<?xml version="1.0" encoding="utf-8"?>
<!-- Generator: Adobe Illustrator 26.3.1, SVG Export Plug-In . SVG Version: 6.00 Build 0)  -->
<svg version="1.1" id="Layer_1" xmlns="http://www.w3.org/2000/svg" xmlns:xlink="http://www.w3.org/1999/xlink" x="0px" y="0px"
	 viewBox="0 0 180 180" style="enable-background:new 0 0 180 180;" xml:space="preserve">
<style type="text/css">
	.st0{fill:none;stroke:#000000;stroke-width:5;stroke-miterlimit:10;}
	.st1{fill:url(#SVGID_1_);stroke:#000000;stroke-width:5;stroke-miterlimit:10;}
	.st2{fill:url(#SVGID_00000136391373128586045050000009972484852738247818_);stroke:#231F20;stroke-width:5;stroke-miterlimit:10;}
	.st3{fill:url(#SVGID_00000126320717448336965720000009083427301499617427_);stroke:#231F20;stroke-width:5;stroke-miterlimit:10;}
	.st4{stroke:#231F20;stroke-width:5;stroke-miterlimit:10;}
	.st5{fill:url(#SVGID_00000108275382760148164970000003537001795672924095_);stroke:#000000;stroke-width:5;stroke-miterlimit:10;}
	.st6{fill:url(#SVGID_00000130614376416269045870000018289885205626215826_);stroke:#000000;stroke-width:5;stroke-miterlimit:10;}
</style>
<g>
	<path class="st0" d="M74.66,8.1c4.64,6.15,10.33,15.74,12.24,28.35c0.39,2.6,0.59,5.08,0.64,7.41"/>
	<path class="st0" d="M95.28,43.86c-2.83-15.48,1.5-29.35,10.95-34.79c2.01-1.16,5.15-2.45,9.66-2.58"/>
	<radialGradient id="SVGID_1_" cx="85.2619" cy="105.4701" r="64" gradientUnits="userSpaceOnUse">
		<stop  offset="0" style="stop-color:#808080"/>
		<stop  offset="1" style="stop-color:#000000"/>
	</radialGradient>
	<circle class="st1" cx="85.26" cy="105.47" r="64"/>
	
		<radialGradient id="SVGID_00000028311450293867510610000012388988423429988510_" cx="123.3019" cy="65.5773" r="35.4362" gradientUnits="userSpaceOnUse">
		<stop  offset="0.4374" style="stop-color:#FFFFFF"/>
		<stop  offset="1" style="stop-color:#BFBFBF"/>
	</radialGradient>
	
		<circle style="fill:url(#SVGID_00000028311450293867510610000012388988423429988510_);stroke:#231F20;stroke-width:5;stroke-miterlimit:10;" cx="123.3" cy="65.58" r="35.44"/>
	
		<radialGradient id="SVGID_00000020401140822645731900000016172170188683550368_" cx="57.5839" cy="61.5773" r="35.4362" gradientUnits="userSpaceOnUse">
		<stop  offset="0.4374" style="stop-color:#FFFFFF"/>
		<stop  offset="1" style="stop-color:#BFBFBF"/>
	</radialGradient>
	
		<circle style="fill:url(#SVGID_00000020401140822645731900000016172170188683550368_);stroke:#231F20;stroke-width:5;stroke-miterlimit:10;" cx="57.58" cy="61.58" r="35.44"/>
	<circle class="st4" cx="70.67" cy="63.26" r="4.83"/>
	<circle class="st4" cx="112.03" cy="67.83" r="4.83"/>
	
		<radialGradient id="SVGID_00000078726528397570788790000004805625597045449897_" cx="101.2819" cy="133.5879" r="21.6146" gradientUnits="userSpaceOnUse">
		<stop  offset="0" style="stop-color:#323232"/>
		<stop  offset="1" style="stop-color:#595959"/>
	</radialGradient>
	
		<polyline style="fill:url(#SVGID_00000078726528397570788790000004805625597045449897_);stroke:#000000;stroke-width:5;stroke-miterlimit:10;" points="
		102.16,157.52 82.26,114.49 92.21,109.66 120.3,147.59 	"/>
	
		<radialGradient id="SVGID_00000117676805238932839400000004092526585538489235_" cx="116.5602" cy="159.9758" r="17.2608" gradientUnits="userSpaceOnUse">
		<stop  offset="0" style="stop-color:#323232"/>
		<stop  offset="1" style="stop-color:#000000"/>
	</radialGradient>
	
		<path style="fill:url(#SVGID_00000117676805238932839400000004092526585538489235_);stroke:#000000;stroke-width:5;stroke-miterlimit:10;" d="
		M136.34,150c2.55,5.05-4.24,13.61-15.17,19.12c-10.92,5.51-21.84,5.88-24.39,0.83s4.24-13.61,15.17-19.12
		C122.87,145.32,133.79,144.95,136.34,150z"/>
</g>
</svg>
