<?xml version="1.0" encoding="utf-8"?>
<!-- Generator: Adobe Illustrator 26.3.1, SVG Export Plug-In . SVG Version: 6.00 Build 0)  -->
<svg version="1.1" id="Layer_1" xmlns="http://www.w3.org/2000/svg" xmlns:xlink="http://www.w3.org/1999/xlink" x="0px" y="0px"
	 viewBox="0 0 200 200" style="enable-background:new 0 0 200 200;" xml:space="preserve">
<style type="text/css">
	.st0{fill:#FFFFFF;}
</style>
<g id="Regular-S" transform="matrix(1 0 0 1 1401.65 696)">
	<path class="st0" d="M-1301.65-507.87c1.05,0,2.29-0.3,3.74-0.9s2.69-1.27,3.74-1.99c18.1-11.42,33.68-23.43,46.75-36.01
		c13.07-12.59,23.12-25.54,30.16-38.85s10.56-26.76,10.56-40.36c0-11.34-2.35-21.39-7.06-30.16c-4.71-8.77-11.1-15.62-19.18-20.57
		c-8.08-4.95-17.15-7.42-27.21-7.42c-9.41,0-17.57,2.37-24.49,7.12s-12.59,11.06-17.01,18.94c-4.34-7.8-9.97-14.1-16.89-18.88
		c-6.92-4.79-15.12-7.18-24.61-7.18c-10.05,0-19.1,2.47-27.15,7.42c-8.04,4.95-14.44,11.8-19.18,20.57
		c-4.75,8.77-7.12,18.82-7.12,30.16c0,13.59,3.52,27.05,10.56,40.36s17.09,26.26,30.16,38.85c13.07,12.59,28.65,24.59,46.75,36.01
		c1.13,0.72,2.39,1.39,3.8,1.99C-1303.92-508.17-1302.7-507.87-1301.65-507.87z"/>
</g>
</svg>
