<?xml version="1.0" encoding="utf-8"?>
<!-- Generator: Adobe Illustrator 26.3.1, SVG Export Plug-In . SVG Version: 6.00 Build 0)  -->
<svg version="1.1" id="Layer_1" xmlns="http://www.w3.org/2000/svg" xmlns:xlink="http://www.w3.org/1999/xlink" x="0px" y="0px"
	 viewBox="0 0 180 180" style="enable-background:new 0 0 180 180;" xml:space="preserve">
<style type="text/css">
	.st0{fill:none;stroke:#000000;stroke-width:5;stroke-miterlimit:10;}
	.st1{fill:url(#SVGID_1_);stroke:#000000;stroke-width:5;stroke-miterlimit:10;}
	.st2{fill:url(#SVGID_00000003082760702619021420000017595819870610800310_);stroke:#231F20;stroke-width:5;stroke-miterlimit:10;}
	.st3{fill:url(#SVGID_00000163756776329352394650000003882335811903643796_);stroke:#231F20;stroke-width:5;stroke-miterlimit:10;}
	.st4{stroke:#231F20;stroke-width:5;stroke-miterlimit:10;}
	.st5{fill:#FFFFFF;stroke:#231F20;stroke-width:5;stroke-miterlimit:10;}
</style>
<g>
	<path class="st0" d="M74.66,10.12c4.64,6.15,10.33,15.74,12.24,28.35c0.39,2.6,0.59,5.08,0.64,7.41"/>
	<path class="st0" d="M95.28,45.88c-2.83-15.48,1.5-29.35,10.95-34.79c2.01-1.16,5.15-2.45,9.66-2.58"/>
	<radialGradient id="SVGID_1_" cx="85.2619" cy="107.49" r="64" gradientUnits="userSpaceOnUse">
		<stop  offset="0" style="stop-color:#FFA580"/>
		<stop  offset="1" style="stop-color:#320000"/>
	</radialGradient>
	<circle class="st1" cx="85.26" cy="107.49" r="64"/>
	
		<radialGradient id="SVGID_00000157987019356432782450000004983615426556630183_" cx="123.3019" cy="67.5971" r="35.4362" gradientUnits="userSpaceOnUse">
		<stop  offset="0.4374" style="stop-color:#FFFFFF"/>
		<stop  offset="1" style="stop-color:#BFBFBF"/>
	</radialGradient>
	
		<circle style="fill:url(#SVGID_00000157987019356432782450000004983615426556630183_);stroke:#231F20;stroke-width:5;stroke-miterlimit:10;" cx="123.3" cy="67.6" r="35.44"/>
	
		<radialGradient id="SVGID_00000024717461136785247100000000648978390154401978_" cx="57.5839" cy="63.5971" r="35.4362" gradientUnits="userSpaceOnUse">
		<stop  offset="0.4374" style="stop-color:#FFFFFF"/>
		<stop  offset="1" style="stop-color:#BFBFBF"/>
	</radialGradient>
	
		<circle style="fill:url(#SVGID_00000024717461136785247100000000648978390154401978_);stroke:#231F20;stroke-width:5;stroke-miterlimit:10;" cx="57.58" cy="63.6" r="35.44"/>
	<circle class="st4" cx="70.67" cy="65.28" r="4.83"/>
	<circle class="st4" cx="112.03" cy="69.85" r="4.83"/>
	<polygon class="st5" points="68.88,117.06 85.8,117.06 77.34,126.78 68.88,136.49 60.42,126.78 51.96,117.06 	"/>
	<polygon class="st5" points="111.12,117.06 128.04,117.06 119.58,126.78 111.12,136.49 102.66,126.78 94.2,117.06 	"/>
	<polygon class="st5" points="90,117.06 106.92,117.06 98.46,126.78 90,136.49 81.54,126.78 73.08,117.06 	"/>
</g>
</svg>
