<?xml version="1.0" encoding="utf-8"?>
<!-- Generator: Adobe Illustrator 26.3.1, SVG Export Plug-In . SVG Version: 6.00 Build 0)  -->
<svg version="1.1" id="Layer_1" xmlns="http://www.w3.org/2000/svg" xmlns:xlink="http://www.w3.org/1999/xlink" x="0px" y="0px"
	 viewBox="0 0 200 200" style="enable-background:new 0 0 200 200;" xml:space="preserve">
<g id="_x37_84-target_x40_2x.png">
	<g>
		<path d="M92.7,85.4c-11.2,0-20.4,9.1-20.4,20.4c0,11.2,9.1,20.4,20.4,20.4c11.2,0,20.4-9.1,20.4-20.4c0-3.6-1-6.9-2.7-9.9
			l50.2-38.6l33.9-14.5l-24.2-4.9l7.3-17l-17,7.3L155.7,4l-14.5,33.9l-38.6,50.2C99.7,86.4,96.3,85.4,92.7,85.4z M92.7,58.3
			c5.8,0,11.3,1.1,16.4,3l3.9-5.8c-6.3-2.6-13.2-4-20.4-4c-30,0-54.3,24.3-54.3,54.3c0,30,24.3,54.3,54.3,54.3
			c30,0,54.3-24.3,54.3-54.3c0-7.2-1.4-14.1-4-20.4l-5.8,3.9c1.9,5.1,3,10.6,3,16.4c0,26.2-21.3,47.5-47.5,47.5S45.2,132,45.2,105.8
			C45.2,79.6,66.5,58.3,92.7,58.3z M165.7,70c5.3,10.8,8.4,23,8.4,35.8c0,45-36.5,81.4-81.4,81.4c-45,0-81.4-36.5-81.4-81.4
			c0-45,36.5-81.4,81.4-81.4c12.9,0,25,3.1,35.8,8.4l3.9-5.7c-11.9-6-25.4-9.5-39.7-9.5C44,17.6,4.5,57.1,4.5,105.8
			C4.5,154.5,44,194,92.7,194s88.2-39.5,88.2-88.2c0-14.3-3.5-27.7-9.5-39.7L165.7,70z"/>
	</g>
</g>
</svg>
